<svg width="24" height="24" viewBox="0 0 24 24" fill="none" xmlns="http://www.w3.org/2000/svg">
<g clip-path="url(#clip0_45_516)">
<path d="M0.70208 18.3277H19.0779C19.2427 18.3277 19.402 18.27 19.5283 18.1649C19.7048 18.0171 23.731 14.5536 23.9765 7.07715H4.24121C3.99665 13.8637 0.288765 17.0536 0.250232 17.0855C0.0243312 17.2763 -0.0587819 17.5881 0.0428476 17.8655C0.143774 18.1423 0.406801 18.3277 0.70208 18.3277Z" fill="#8C2B45"/>
<path d="M23.2968 2.85846H19.781V2.1553C19.781 1.76154 19.4716 1.45215 19.0778 1.45215C18.684 1.45215 18.3747 1.76154 18.3747 2.1553V2.85846H14.812V2.1553C14.812 1.76154 14.5026 1.45215 14.1088 1.45215C13.7151 1.45215 13.4057 1.76154 13.4057 2.1553V2.85846H9.8899V2.1553C9.8899 1.76154 9.58051 1.45215 9.18674 1.45215C8.79298 1.45215 8.48359 1.76154 8.48359 2.1553V2.85846H4.96781C4.57404 2.85846 4.26465 3.16785 4.26465 3.56162V5.67109H23.9999V3.56162C23.9999 3.16785 23.6905 2.85846 23.2968 2.85846Z" fill="#8C2B45"/>
<path d="M20.4314 19.2437C20.0496 19.5616 19.5703 19.7346 19.0779 19.7346H4.26477V21.8441C4.26477 22.2328 4.57927 22.5473 4.96793 22.5473H23.2969C23.6855 22.5473 24 22.2328 24 21.8441V13.9619C22.6443 17.2879 20.7526 18.9748 20.4314 19.2437Z" fill="#8C2B45"/>
</g>
<defs>
<clipPath id="clip0_45_516">
<rect width="24" height="24" fill="white"/>
</clipPath>
</defs>
</svg>
