<svg width="24" height="25" viewBox="0 0 24 25" fill="none" xmlns="http://www.w3.org/2000/svg">
<path fill-rule="evenodd" clip-rule="evenodd" d="M16 3.72266H8C5.23858 3.72266 3 5.96124 3 8.72266V16.7227C3 19.4841 5.23858 21.7227 8 21.7227H16C18.7614 21.7227 21 19.4841 21 16.7227V8.72266C21 5.96124 18.7614 3.72266 16 3.72266ZM19.25 16.7227C19.2445 18.5153 17.7926 19.9672 16 19.9727H8C6.20735 19.9672 4.75549 18.5153 4.75 16.7227V8.72266C4.75549 6.93001 6.20735 5.47815 8 5.47266H16C17.7926 5.47815 19.2445 6.93001 19.25 8.72266V16.7227ZM16.75 8.97266C17.3023 8.97266 17.75 8.52494 17.75 7.97266C17.75 7.42038 17.3023 6.97266 16.75 6.97266C16.1977 6.97266 15.75 7.42038 15.75 7.97266C15.75 8.52494 16.1977 8.97266 16.75 8.97266ZM12 8.22266C9.51472 8.22266 7.5 10.2374 7.5 12.7227C7.5 15.208 9.51472 17.2227 12 17.2227C14.4853 17.2227 16.5 15.208 16.5 12.7227C16.5027 11.5284 16.0294 10.3822 15.1849 9.53774C14.3404 8.69325 13.1943 8.22 12 8.22266ZM9.25 12.7227C9.25 14.2415 10.4812 15.4727 12 15.4727C13.5188 15.4727 14.75 14.2415 14.75 12.7227C14.75 11.2039 13.5188 9.97266 12 9.97266C10.4812 9.97266 9.25 11.2039 9.25 12.7227Z" fill="#8C2B45"/>
</svg>
