<?xml version="1.0" encoding="utf-8"?>
<!-- Generator: Adobe Illustrator 26.0.3, SVG Export Plug-In . SVG Version: 6.00 Build 0)  -->
<svg version="1.1" id="Layer_1" xmlns="http://www.w3.org/2000/svg" xmlns:xlink="http://www.w3.org/1999/xlink" x="0px" y="0px"
	 viewBox="0 0 56 56" style="enable-background:new 0 0 56 56;" xml:space="preserve">
<style type="text/css">
	.st0{opacity:0.8;fill:#FFFAF2;}
	.st1{fill:#8C2B45;}
</style>
<path class="st0" d="M28,0L28,0c15.5,0,28,12.5,28,28l0,0c0,15.5-12.5,28-28,28l0,0C12.5,56,0,43.5,0,28l0,0C0,12.5,12.5,0,28,0z"/>
<path class="st1" d="M28,27c1.9,0,3.6-0.7,4.9-2.1c1.4-1.4,2.1-3,2.1-4.9c0-1.9-0.7-3.6-2.1-4.9c-1.4-1.4-3-2.1-4.9-2.1
	c-1.9,0-3.6,0.7-4.9,2.1c-1.4,1.4-2.1,3-2.1,4.9c0,1.9,0.7,3.6,2.1,4.9C24.4,26.3,26.1,27,28,27z"/>
<path class="st1" d="M39.9,35.8c0-0.6-0.1-1.3-0.2-2c-0.1-0.7-0.3-1.4-0.5-2c-0.2-0.6-0.5-1.2-0.8-1.8c-0.3-0.6-0.7-1.1-1.2-1.6
	c-0.5-0.5-1-0.8-1.7-1.1c-0.7-0.3-1.4-0.4-2.2-0.4c-0.3,0-0.6,0.1-1.2,0.5c-0.4,0.2-0.8,0.5-1.2,0.8c-0.4,0.3-0.9,0.5-1.6,0.7
	c-0.6,0.2-1.3,0.3-1.9,0.3s-1.3-0.1-1.9-0.3c-0.7-0.2-1.2-0.5-1.6-0.7c-0.5-0.3-0.9-0.6-1.2-0.8c-0.6-0.4-0.9-0.5-1.2-0.5
	c-0.8,0-1.5,0.1-2.2,0.4c-0.7,0.3-1.2,0.6-1.7,1.1c-0.4,0.4-0.8,1-1.2,1.6c-0.3,0.6-0.6,1.2-0.8,1.8c-0.2,0.6-0.3,1.3-0.5,2
	c-0.1,0.7-0.2,1.4-0.2,2c0,0.6-0.1,1.2-0.1,1.8c0,1.6,0.5,2.9,1.5,3.9c1,1,2.2,1.4,3.8,1.4h14.4c1.6,0,2.8-0.5,3.8-1.4
	c1-1,1.5-2.3,1.5-3.9C40,37.1,40,36.4,39.9,35.8z"/>
</svg>
