<svg width="120" height="28" viewBox="0 0 120 28" fill="none" xmlns="http://www.w3.org/2000/svg">
<g clip-path="url(#clip0_50_722)">
<path d="M8.60519 2.3534V0.363274H0V22.4521H2.09911V14.4798H7.51821V12.4857H2.09911V2.3534H8.60519Z" fill="white"/>
<path d="M19.8491 8.7226V16.6199C19.8527 17.1693 19.7405 17.7132 19.5199 18.216C19.2993 18.7189 18.9753 19.1694 18.5691 19.538C18.1852 19.9375 17.7244 20.2547 17.2147 20.4705C16.705 20.6863 16.1569 20.7963 15.6036 20.7937C15.0695 20.802 14.5398 20.6956 14.05 20.4818C13.5603 20.2679 13.1218 19.9515 12.7641 19.5538C12.3829 19.1678 12.0821 18.7096 11.8793 18.2059C11.6764 17.7022 11.5756 17.1631 11.5826 16.6199V8.7226H9.51103V16.6199C9.49711 17.4252 9.64552 18.225 9.94734 18.9714C10.2492 19.7177 10.6982 20.3953 11.2675 20.9635C11.8277 21.5451 12.5016 22.0045 13.2471 22.3129C13.9925 22.6214 14.7934 22.7723 15.5996 22.7562C17.3719 22.7562 18.7936 22.227 19.8451 21.1767V22.4561H21.9167V8.7226H19.8491Z" fill="white"/>
<path d="M32.0499 9.42547C31.235 8.78588 30.2333 8.43212 29.1985 8.41854C28.2657 8.40854 27.347 8.647 26.5362 9.10955C26.3022 9.24567 26.0785 9.39877 25.8667 9.56761V8.72259H23.7952V22.4521H25.8667V13.4965C25.8665 13.088 25.9511 12.6839 26.1152 12.31C26.2793 11.9361 26.5193 11.6006 26.8198 11.3248C27.0997 11.0261 27.4377 10.7882 27.813 10.6259C28.1883 10.4635 28.5929 10.3802 29.0016 10.381C29.4335 10.3907 29.8588 10.4892 30.251 10.6706C30.6433 10.8519 30.9942 11.1122 31.2819 11.4353L32.2901 12.4462V9.60314L32.0499 9.42547Z" fill="white"/>
<path d="M41.7262 9.42547C40.9103 8.78507 39.9071 8.43126 38.871 8.41854C37.9394 8.40811 37.0218 8.64662 36.2126 9.10956C35.9786 9.24567 35.7548 9.39878 35.5431 9.56762V8.7226H33.4716V22.4521H35.5431V13.4965C35.5431 13.0884 35.6274 12.6847 35.7908 12.311C35.9541 11.9372 36.193 11.6014 36.4923 11.3248C36.7729 11.026 37.1116 10.7881 37.4875 10.6257C37.8635 10.4634 38.2687 10.3801 38.678 10.381C39.1092 10.3912 39.5337 10.49 39.9253 10.6714C40.3168 10.8527 40.6671 11.1127 40.9543 11.4353L41.9625 12.4462V9.60314L41.7262 9.42547Z" fill="white"/>
<path d="M53.2103 8.7226V16.6199C53.2148 17.1662 53.1077 17.7075 52.8957 18.2107C52.6837 18.7139 52.3713 19.1683 51.9776 19.5459C51.6035 19.9404 51.1533 20.2545 50.6543 20.4691C50.1553 20.6838 49.618 20.7945 49.0751 20.7945C48.5321 20.7945 47.9949 20.6838 47.4959 20.4691C46.9969 20.2545 46.5467 19.9404 46.1726 19.5459C45.7778 19.1691 45.4646 18.7149 45.2525 18.2116C45.0404 17.7082 44.934 17.1664 44.9399 16.6199V8.7226H42.8683V16.6199C42.8586 17.4299 43.0147 18.2333 43.327 18.9804C43.6393 19.7275 44.1011 20.4024 44.6839 20.9635C45.2551 21.5414 45.9375 21.9968 46.6897 22.3023C47.4418 22.6077 48.248 22.7568 49.0593 22.7404C50.8001 22.7404 52.21 22.2389 53.2221 21.2438V21.5558C53.2108 22.7409 52.7363 23.8743 51.9004 24.7123C51.0646 25.5504 49.9342 26.0262 48.7521 26.0375C47.9132 26.0376 47.0923 25.7934 46.3892 25.3346C45.6265 24.8519 44.9937 24.1888 44.546 23.4037L43.5457 21.6466L43.4 25.2794L43.526 25.4492C44.1257 26.2672 44.9147 26.9268 45.8251 27.3712C46.7355 27.8156 47.7401 28.0314 48.7521 28C49.611 28.0079 50.4629 27.8445 51.2583 27.5194C52.0537 27.1943 52.7767 26.714 53.3854 26.1063C53.994 25.4986 54.4762 24.7757 54.8037 23.9796C55.1313 23.1835 55.2979 22.3301 55.2937 21.4689V8.7226H53.2103Z" fill="white"/>
<path d="M76.4857 3.34848C74.3441 1.20245 71.4401 -0.00306702 68.4122 -0.00306702C65.3844 -0.00306702 62.4804 1.20245 60.3387 3.34848C59.2642 4.37659 58.4109 5.61421 57.8311 6.98523C57.2514 8.35626 56.9575 9.83171 56.9675 11.3208C56.9591 12.8144 57.2485 14.2947 57.8186 15.6746C58.3887 17.0545 59.2281 18.3063 60.2875 19.3564C61.2909 20.446 62.5092 21.3148 63.8651 21.9075C65.221 22.5003 66.6849 22.8041 68.1641 22.7996H68.5816C70.0686 22.8118 71.5418 22.5133 72.9074 21.9232C74.273 21.3331 75.501 20.4643 76.5133 19.3722C77.5709 18.318 78.4081 17.063 78.9762 15.6806C79.5442 14.2981 79.8316 12.816 79.8215 11.3208C79.8333 9.83469 79.5438 8.36163 78.9703 6.99114C78.3969 5.62065 77.5516 4.38133 76.4857 3.34848ZM68.4083 1.99409C69.6371 1.97108 70.8573 2.20495 71.991 2.68084C73.1247 3.15673 74.1472 3.86421 74.9931 4.75816C76.7497 6.51978 77.7365 8.90881 77.7365 11.3998C77.7365 13.8908 76.7497 16.2798 74.9931 18.0415C74.1352 18.9213 73.1106 19.6204 71.9795 20.0977C70.8484 20.5749 69.6335 20.8208 68.4063 20.8208C67.1791 20.8208 65.9643 20.5749 64.8331 20.0977C63.702 19.6204 62.6774 18.9213 61.8195 18.0415C60.9493 17.1694 60.2589 16.1341 59.7879 14.9945C59.3169 13.8549 59.0745 12.6334 59.0745 11.3998C59.0745 10.1662 59.3169 8.94475 59.7879 7.80514C60.2589 6.66554 60.9493 5.63017 61.8195 4.75816C62.6682 3.86661 63.6916 3.16077 64.8255 2.68508C65.9594 2.20939 67.1793 1.97414 68.4083 1.99409Z" fill="white"/>
<path d="M93.1683 8.72259V10.4995C92.7596 10.0826 92.2958 9.72391 91.7899 9.43335C90.67 8.76475 89.3914 8.41018 88.0879 8.4067C87.1422 8.39437 86.2038 8.57493 85.3297 8.9374C84.4557 9.29988 83.6643 9.8367 83.0036 10.5153C82.3316 11.1746 81.7977 11.9618 81.4332 12.8307C81.0687 13.6997 80.881 14.6328 80.881 15.5755C80.881 16.5182 81.0687 17.4513 81.4332 18.3203C81.7977 19.1892 82.3316 19.9764 83.0036 20.6357C83.6633 21.3121 84.4529 21.8474 85.3248 22.2091C86.1967 22.5709 87.1326 22.7516 88.0761 22.7404C89.3569 22.7431 90.6144 22.3978 91.7151 21.7413C92.2453 21.4287 92.7303 21.0448 93.1565 20.6002V22.4363H95.2281V8.72259H93.1683ZM93.2235 15.6012C93.2336 16.2804 93.1062 16.9547 92.849 17.5832C92.5917 18.2117 92.21 18.7813 91.7269 19.2576C91.2685 19.7522 90.7115 20.1445 90.092 20.4091C89.4726 20.6738 88.8045 20.8048 88.1313 20.7937C86.7644 20.7826 85.4558 20.237 84.4841 19.2731C83.5124 18.3092 82.9544 17.003 82.9288 15.6328C82.9224 14.9483 83.0557 14.2699 83.3205 13.639C83.5853 13.0082 83.976 12.4383 84.4686 11.9645C84.9293 11.4625 85.4897 11.0626 86.1137 10.7906C86.7377 10.5186 87.4115 10.3804 88.0919 10.385C88.7662 10.3766 89.4348 10.5104 90.0542 10.7778C90.6736 11.0451 91.2301 11.44 91.6875 11.9368C92.1762 12.412 92.5634 12.9819 92.8254 13.6119C93.0874 14.2418 93.2188 14.9187 93.2117 15.6012H93.2235Z" fill="white"/>
<path d="M104.747 15.8816C104.295 15.2508 103.726 14.7143 103.069 14.3021C102.467 13.9072 101.864 13.5676 101.277 13.2399C100.777 12.9678 100.312 12.6364 99.8911 12.2527C99.7657 12.1494 99.6633 12.0207 99.5907 11.8751C99.5181 11.7296 99.4769 11.5703 99.4697 11.4077C99.4678 11.2692 99.4982 11.1321 99.5583 11.0074C99.6185 10.8826 99.7068 10.7736 99.8162 10.689C100.064 10.4699 100.384 10.3504 100.714 10.3534C101.076 10.3621 101.429 10.4658 101.738 10.6543C102.047 10.8428 102.301 11.1094 102.475 11.4274L103.558 13.0543V9.70978L103.4 9.53999C103.082 9.16715 102.687 8.86809 102.242 8.66355C101.798 8.459 101.314 8.35385 100.824 8.35539C99.9421 8.32215 99.0785 8.61593 98.3985 9.18065C98.0828 9.43537 97.8288 9.75851 97.6555 10.1258C97.4823 10.493 97.3943 10.8949 97.3981 11.3011C97.3889 12.0756 97.6619 12.8268 98.1661 13.4136C98.6342 13.9645 99.1922 14.4318 99.8162 14.7957L101.581 15.8381C102.097 16.1417 102.558 16.5316 102.943 16.9911C103.278 17.4068 103.452 17.93 103.432 18.464C103.421 18.7652 103.345 19.0605 103.209 19.3292C103.073 19.5979 102.88 19.8336 102.644 20.0197C102.086 20.52 101.356 20.7845 100.608 20.7581C99.2924 20.7581 98.3591 20.1066 97.7526 18.7641L96.6262 16.2606V20.4975L96.6971 20.6318C97.0794 21.3019 97.6564 21.8391 98.3512 22.1718C99.0771 22.5366 99.8785 22.7247 100.691 22.7206C101.949 22.7433 103.166 22.2713 104.081 21.4057C104.535 20.9998 104.897 20.5012 105.143 19.9434C105.389 19.3856 105.513 18.7816 105.507 18.1718C105.505 17.3465 105.238 16.5437 104.747 15.8816Z" fill="white"/>
<path d="M108.343 6.87068C108.606 6.86139 108.861 6.77459 109.075 6.6211C109.29 6.4676 109.455 6.2542 109.549 6.00749C109.644 5.76078 109.664 5.49166 109.606 5.23367C109.549 4.97567 109.418 4.74018 109.228 4.55658C109.039 4.37298 108.8 4.24937 108.54 4.20114C108.281 4.15291 108.014 4.18221 107.771 4.28537C107.528 4.38853 107.321 4.56098 107.176 4.78127C107.03 5.00156 106.953 5.25994 106.952 5.5242C106.941 5.70802 106.97 5.89204 107.037 6.06365C107.103 6.23525 107.206 6.39036 107.338 6.51831C107.47 6.64625 107.629 6.74399 107.802 6.80482C107.975 6.86564 108.16 6.88812 108.343 6.87068Z" fill="white"/>
<path d="M109.378 8.7542H107.307V22.4521H109.378V8.7542Z" fill="white"/>
<path d="M119.26 15.8815C118.808 15.2508 118.238 14.7143 117.582 14.3021C116.979 13.9072 116.377 13.5676 115.79 13.2399C115.29 12.9678 114.825 12.6364 114.404 12.2527C114.275 12.1504 114.169 12.0218 114.094 11.8754C114.019 11.7291 113.975 11.5683 113.967 11.4038C113.965 11.2652 113.995 11.1282 114.055 11.0034C114.115 10.8787 114.204 10.7697 114.313 10.6851C114.56 10.4653 114.881 10.3457 115.211 10.3495C115.572 10.3585 115.925 10.4625 116.234 10.6509C116.543 10.8394 116.797 11.1058 116.971 11.4235L118.054 13.0504V9.70978L117.897 9.53999C117.579 9.16715 117.184 8.86809 116.739 8.66354C116.294 8.459 115.811 8.35385 115.321 8.35539C114.438 8.32303 113.573 8.61665 112.891 9.18065C112.577 9.43614 112.324 9.75953 112.151 10.1267C111.979 10.4938 111.891 10.8953 111.895 11.3011C111.883 12.0754 112.155 12.8271 112.659 13.4136C113.13 13.9637 113.689 14.4308 114.313 14.7957L116.077 15.8381C116.593 16.1427 117.054 16.5326 117.44 16.9911C117.775 17.4068 117.949 17.93 117.928 18.464C117.918 18.7652 117.842 19.0605 117.706 19.3292C117.57 19.5979 117.377 19.8336 117.141 20.0197C116.582 20.52 115.853 20.7845 115.105 20.7581C113.789 20.7581 112.856 20.1066 112.249 18.7641L111.119 16.2606V20.4975L111.194 20.6318C111.575 21.3026 112.153 21.8401 112.848 22.1718C113.571 22.5429 114.371 22.7377 115.183 22.7404C116.442 22.763 117.659 22.2911 118.574 21.4255C119.028 21.0195 119.39 20.5209 119.636 19.9632C119.882 19.4054 120.006 18.8013 120 18.1915C120.008 17.3617 119.748 16.5515 119.26 15.8815Z" fill="white"/>
</g>
<defs>
<clipPath id="clip0_50_722">
<rect width="120" height="28" fill="white"/>
</clipPath>
</defs>
</svg>
