<svg width="160" height="41" viewBox="0 0 160 41" fill="none" xmlns="http://www.w3.org/2000/svg">
<g clip-path="url(#clip0_26_51)">
<path d="M11.4736 4.02215V1.43521H0V30.1482H2.79882V19.785H10.0243V17.1929H2.79882V4.02215H11.4736Z" fill="white"/>
<path d="M26.4654 12.3014V22.567C26.4701 23.2811 26.3206 23.9881 26.0265 24.6417C25.7324 25.2954 25.3004 25.881 24.7588 26.3601C24.2468 26.8794 23.6325 27.2918 22.9528 27.5723C22.2732 27.8529 21.5424 27.9958 20.8047 27.9924C20.0931 28.0032 19.3872 27.8654 18.7344 27.5884C18.0815 27.3114 17.4966 26.9014 17.0187 26.3858C16.5093 25.8838 16.1076 25.2874 15.8371 24.6317C15.5666 23.9759 15.4328 23.274 15.4434 22.567V12.3014H12.6761V22.567C12.658 23.6132 12.8556 24.6523 13.2571 25.6223C13.6585 26.5923 14.2556 27.4734 15.0128 28.2131C15.7601 28.969 16.6585 29.5665 17.6523 29.9683C18.646 30.3701 19.7137 30.5676 20.789 30.5485C23.1519 30.5485 25.0476 29.8556 26.4496 28.4954V30.1584H29.2117V12.3014H26.4654Z" fill="white"/>
<path d="M42.7332 13.215C41.6467 12.3836 40.3111 11.9238 38.9314 11.9061C37.6877 11.8932 36.4627 12.2031 35.3817 12.8044C35.0696 12.9831 34.7712 13.1838 34.489 13.4049V12.3014H31.7269V30.1482H34.489V18.5069C34.4884 17.9771 34.6006 17.453 34.8185 16.9679C35.0364 16.4827 35.3551 16.0472 35.7545 15.689C36.1288 15.3004 36.5803 14.9907 37.0815 14.7789C37.5827 14.567 38.1228 14.4575 38.6688 14.4572C39.2462 14.4722 39.8142 14.6036 40.3373 14.8429C40.8605 15.0822 41.3275 15.4244 41.7092 15.8481L43.0587 17.1416V13.446L42.7332 13.215Z" fill="white"/>
<path d="M55.6613 13.215C54.5734 12.3826 53.2357 11.9227 51.8542 11.9061C50.2409 11.8804 48.6699 12.411 47.4171 13.4049V12.3014H44.634V30.1482H47.3961V18.5069C47.3955 17.9771 47.5077 17.453 47.7256 16.9679C47.9435 16.4827 48.2622 16.0472 48.6616 15.689C49.0355 15.2999 49.487 14.9899 49.9882 14.778C50.4895 14.5661 51.0298 14.4569 51.5759 14.4572C52.1524 14.4729 52.7194 14.6046 53.2416 14.8439C53.7638 15.0832 54.2299 15.4251 54.6111 15.8481L55.9553 17.1621V13.4665L55.6613 13.215Z" fill="white"/>
<path d="M70.9472 12.3014V22.567C70.9551 23.2764 70.8143 23.9798 70.5335 24.6339C70.2526 25.2881 69.8376 25.8791 69.3141 26.3704C68.8153 26.8832 68.215 27.2915 67.5497 27.5705C66.8844 27.8495 66.168 27.9934 65.4441 27.9934C64.7202 27.9934 64.0038 27.8495 63.3385 27.5705C62.6732 27.2915 62.0729 26.8832 61.5741 26.3704C61.0477 25.8807 60.6301 25.2903 60.3473 24.6359C60.0645 23.9816 59.9227 23.2773 59.9305 22.567V12.3014H57.1684V22.567C57.1555 23.6199 57.3636 24.6642 57.78 25.6353C58.1964 26.6065 58.8121 27.4838 59.5892 28.2131C60.3461 28.9686 61.252 29.5661 62.2521 29.9693C63.2522 30.3725 64.3256 30.5731 65.4073 30.5588C67.7283 30.5588 69.6082 29.9018 70.9577 28.6083V28.9881C70.9427 30.5287 70.3099 32.0019 69.1954 33.0913C68.081 34.1807 66.5738 34.7992 64.9978 34.8139C63.8792 34.814 62.7847 34.4966 61.8471 33.9002C60.8297 33.2717 59.9844 32.4102 59.3844 31.3903L58.0296 29.1113L57.8511 33.813L58.0191 34.0337C58.8192 35.0961 59.8715 35.9526 61.0853 36.5293C62.2992 37.106 63.6383 37.3857 64.9873 37.3444C66.1325 37.3546 67.2683 37.1422 68.3288 36.7196C69.3894 36.2971 70.3534 35.6727 71.1649 34.8828C71.9764 34.0929 72.6193 33.1532 73.0561 32.1184C73.4928 31.0835 73.7149 29.9741 73.7093 28.8547V12.3014H70.9472Z" fill="white"/>
<path d="M101.981 5.32075C99.1254 2.53116 95.2534 0.964119 91.2162 0.964119C87.1791 0.964119 83.3071 2.53116 80.4516 5.32075C79.0189 6.65717 77.8811 8.26594 77.1081 10.0481C76.3351 11.8303 75.9432 13.7482 75.9566 15.6839C75.9454 17.6254 76.3312 19.5495 77.0914 21.3433C77.8515 23.137 78.9708 24.7642 80.3833 26.1292C81.7205 27.5464 83.3448 28.6761 85.1528 29.4467C86.9608 30.2172 88.913 30.6117 90.8854 30.605H91.442C93.4253 30.6242 95.3909 30.2394 97.2135 29.4749C99.0362 28.7105 100.676 27.5833 102.028 26.1651C103.438 24.7948 104.555 23.1635 105.312 21.3664C106.069 19.5694 106.453 17.6428 106.439 15.6993C106.457 13.764 106.071 11.8454 105.304 10.0609C104.538 8.27645 103.407 6.66352 101.981 5.32075ZM91.211 3.55506C92.8495 3.52515 94.4763 3.82918 95.988 4.44778C97.4996 5.06639 98.8628 5.98601 99.9908 7.14803C101.176 8.26179 102.114 9.60218 102.747 11.0857C103.379 12.5693 103.692 14.1642 103.667 15.7712C103.692 17.3811 103.378 18.9789 102.746 20.4657C102.114 21.9525 101.176 23.2966 99.9908 24.4148C98.8469 25.5585 97.4808 26.4672 95.9726 27.0876C94.4644 27.708 92.8446 28.0276 91.2084 28.0276C89.5721 28.0276 87.9523 27.708 86.4441 27.0876C84.936 26.4672 83.5698 25.5585 82.4259 24.4148C81.2405 23.2968 80.3026 21.9527 79.6703 20.4659C79.038 18.9791 78.7248 17.3811 78.7502 15.7712C78.724 14.1641 79.0368 12.569 79.6692 11.0854C80.3016 9.60174 81.2401 8.26142 82.4259 7.14803C83.5573 5.98887 84.9218 5.07122 86.4338 4.45286C87.9457 3.8345 89.5723 3.52882 91.211 3.55506Z" fill="white"/>
<path d="M124.209 12.3014V14.6265C123.664 14.0847 123.045 13.6184 122.371 13.2407C120.878 12.3716 119.173 11.9107 117.435 11.9061C116.174 11.8913 114.923 12.1266 113.758 12.5977C112.593 13.0688 111.537 13.766 110.656 14.6471C109.76 15.5041 109.048 16.5274 108.562 17.6569C108.076 18.7864 107.826 19.9994 107.826 21.2248C107.826 22.4501 108.076 23.6631 108.562 24.7926C109.048 25.9222 109.76 26.9454 110.656 27.8025C111.536 28.6857 112.591 29.3846 113.756 29.8567C114.922 30.3288 116.173 30.5642 117.435 30.5485C119.141 30.5495 120.816 30.099 122.282 29.2448C122.991 28.8398 123.64 28.3406 124.209 27.7614V30.1482H126.971V12.3014H124.209ZM124.282 21.2427C124.296 22.1258 124.127 23.0024 123.784 23.8195C123.441 24.6365 122.931 25.3769 122.287 25.9957C121.676 26.6386 120.933 27.1485 120.107 27.4925C119.281 27.8365 118.39 28.0068 117.493 27.9924C116.586 28.0031 115.686 27.8309 114.85 27.4864C114.015 27.142 113.261 26.6328 112.635 25.9906C111.98 25.3825 111.46 24.6489 111.107 23.8355C110.755 23.0221 110.578 22.1465 110.587 21.2633C110.579 20.3736 110.757 19.4917 111.11 18.6716C111.463 17.8516 111.984 17.1108 112.641 16.4949C113.255 15.8423 114.002 15.3226 114.834 14.969C115.666 14.6154 116.564 14.4358 117.472 14.4418C118.371 14.4309 119.262 14.6048 120.088 14.9523C120.914 15.2999 121.656 15.8131 122.266 16.459C122.917 17.0803 123.432 17.8251 123.779 18.6476C124.125 19.4702 124.297 20.3532 124.282 21.2427Z" fill="white"/>
<path d="M139.678 21.6072C139.076 20.7872 138.317 20.0898 137.441 19.554C136.638 19.0408 135.835 18.5993 135.052 18.1733C134.386 17.8196 133.765 17.3888 133.204 16.8901C133.032 16.7571 132.891 16.5899 132.791 16.3997C132.69 16.2094 132.632 16.0004 132.621 15.7866C132.619 15.6065 132.659 15.4283 132.739 15.2661C132.819 15.104 132.937 14.9623 133.083 14.8524C133.413 14.5667 133.84 14.4112 134.28 14.4161C134.762 14.4273 135.233 14.5622 135.645 14.8073C136.057 15.0523 136.396 15.3989 136.628 15.8122L138.072 17.9269V13.6102L137.862 13.3895C137.438 12.9041 136.912 12.5148 136.318 12.2488C135.725 11.9829 135.08 11.8466 134.427 11.8497C133.249 11.8076 132.097 12.1893 131.187 12.9224C130.768 13.2548 130.431 13.6752 130.201 14.1524C129.971 14.6296 129.854 15.1513 129.859 15.6788C129.847 16.6855 130.211 17.662 130.883 18.4248C131.507 19.1409 132.251 19.7484 133.083 20.2213L135.436 21.5764C136.123 21.9726 136.737 22.4793 137.252 23.0751C137.699 23.6155 137.93 24.2956 137.904 24.9897C137.89 25.3812 137.789 25.765 137.607 26.1143C137.426 26.4637 137.168 26.77 136.853 27.012C136.109 27.6623 135.136 28.0062 134.139 27.9718C132.385 27.9718 131.14 27.1249 130.332 25.4054L128.824 22.1564V27.6536L128.924 27.8281C129.434 28.6991 130.203 29.3975 131.13 29.8299C132.096 30.308 133.165 30.5543 134.249 30.5485C135.927 30.5782 137.551 29.9626 138.77 28.8342C139.376 28.3069 139.859 27.6588 140.187 26.9337C140.515 26.2086 140.68 25.4232 140.671 24.6304C140.683 23.5442 140.335 22.4834 139.678 21.6072Z" fill="white"/>
<path d="M144.457 9.89409C144.701 9.91825 144.948 9.89034 145.18 9.81228C145.412 9.73422 145.624 9.60787 145.801 9.44196C145.978 9.27604 146.116 9.07451 146.206 8.85127C146.296 8.62803 146.335 8.3884 146.321 8.14893C146.321 7.66567 146.125 7.2022 145.775 6.86048C145.425 6.51876 144.951 6.32678 144.457 6.32678C143.962 6.32678 143.488 6.51876 143.139 6.86048C142.789 7.2022 142.593 7.66567 142.593 8.14893C142.579 8.3884 142.618 8.62803 142.707 8.85127C142.797 9.07451 142.936 9.27604 143.113 9.44196C143.29 9.60787 143.502 9.73422 143.734 9.81228C143.966 9.89034 144.213 9.91825 144.457 9.89409Z" fill="white"/>
<path d="M145.838 12.3424H143.076V30.1482H145.838V12.3424Z" fill="white"/>
<path d="M159.013 21.6072C158.409 20.787 157.647 20.0896 156.771 19.554C155.972 19.0408 155.169 18.5993 154.387 18.1733C153.72 17.8196 153.099 17.3888 152.538 16.8901C152.366 16.7571 152.226 16.5899 152.125 16.3997C152.025 16.2094 151.967 16.0004 151.955 15.7866C151.953 15.6065 151.993 15.4283 152.074 15.2661C152.154 15.104 152.272 14.9623 152.417 14.8524C152.747 14.5667 153.174 14.4112 153.615 14.4161C154.096 14.4293 154.566 14.5656 154.977 14.8114C155.388 15.0573 155.726 15.4041 155.957 15.8173L157.395 17.9321V13.6102L157.191 13.3895C156.767 12.9046 156.24 12.5157 155.647 12.2498C155.054 11.9839 154.409 11.8473 153.756 11.8497C152.579 11.8076 151.426 12.1893 150.517 12.9224C150.097 13.2548 149.76 13.6752 149.53 14.1524C149.3 14.6296 149.183 15.1513 149.188 15.6788C149.172 16.6852 149.534 17.6625 150.207 18.4248C150.834 19.1398 151.58 19.7471 152.412 20.2213L154.759 21.5764C155.449 21.9724 156.065 22.4791 156.582 23.0751C157.028 23.6155 157.259 24.2956 157.233 24.9897C157.219 25.3812 157.118 25.765 156.936 26.1143C156.755 26.4637 156.498 26.77 156.182 27.012C155.436 27.663 154.462 28.007 153.462 27.9718C151.714 27.9718 150.469 27.1249 149.661 25.4054L148.154 22.1564V27.6536L148.253 27.8281C148.762 28.7002 149.531 29.3988 150.459 29.8299C151.425 30.308 152.495 30.5543 153.578 30.5485C155.257 30.5782 156.88 29.9626 158.099 28.8342C158.705 28.3069 159.188 27.6588 159.516 26.9337C159.844 26.2086 160.009 25.4232 160 24.6304C160.011 23.5452 159.665 22.4852 159.013 21.6072Z" fill="white"/>
<path d="M80.7456 40.8757V35.6351H82.846C83.2112 35.6161 83.5746 35.696 83.8962 35.8661C84.1278 36.0116 84.3104 36.2204 84.4213 36.4667C84.5294 36.7059 84.5849 36.9647 84.5841 37.2263C84.5831 37.4165 84.5512 37.6054 84.4896 37.7858C84.4244 37.9751 84.3208 38.1497 84.1851 38.2991C84.0386 38.4583 83.8597 38.5859 83.6599 38.6738C83.4019 38.7767 83.1246 38.8257 82.846 38.8175H81.4965V40.8706L80.7456 40.8757ZM81.5175 38.1092H82.9143C83.0989 38.1158 83.2815 38.0694 83.4394 37.9757C83.5696 37.896 83.6721 37.7797 83.7335 37.6421C83.7911 37.5106 83.8215 37.3693 83.8227 37.2263C83.8206 37.0911 83.7939 36.9572 83.744 36.8311C83.6875 36.6895 83.5887 36.5678 83.4604 36.4821C83.291 36.3782 83.093 36.3281 82.8933 36.3383H81.4965L81.5175 38.1092Z" fill="white"/>
<path d="M87.5825 40.8757V35.6351H90.9169V36.3486H88.3597V37.8063H89.9875V38.5249H88.3597V40.152H91.0797V40.8757H87.5825Z" fill="white"/>
<path d="M95.3803 40.8757V36.3794H93.8785V35.6351H97.6698V36.3794H96.1628V40.8963L95.3803 40.8757Z" fill="white"/>
<path d="M106.324 40.963C105.96 40.9727 105.599 40.8952 105.273 40.7372C104.987 40.5922 104.742 40.3807 104.559 40.1212C104.373 39.8557 104.237 39.5603 104.155 39.2486C104.069 38.9234 104.025 38.5889 104.024 38.2529C104.024 37.9195 104.072 37.5879 104.165 37.2674C104.253 36.9559 104.393 36.6609 104.58 36.3948C104.767 36.1376 105.011 35.9252 105.294 35.7737C105.61 35.6132 105.963 35.5337 106.318 35.5428C106.607 35.5345 106.894 35.5815 107.164 35.6813C107.375 35.766 107.566 35.8917 107.726 36.0509C107.871 36.1936 108 36.352 108.109 36.5231L107.416 36.9081C107.298 36.7361 107.152 36.5837 106.985 36.4564C106.792 36.3192 106.557 36.2504 106.318 36.2613C106.069 36.2546 105.824 36.3169 105.609 36.441C105.419 36.5605 105.262 36.7245 105.153 36.9183C105.034 37.119 104.951 37.3376 104.906 37.5651C104.801 38.0352 104.801 38.5219 104.906 38.992C104.955 39.2174 105.044 39.4327 105.168 39.6285C105.282 39.8124 105.441 39.9659 105.631 40.075C105.836 40.1905 106.071 40.2474 106.308 40.2393C106.511 40.244 106.712 40.1962 106.891 40.1007C107.056 40.0079 107.192 39.8731 107.285 39.7106C107.381 39.5376 107.43 39.343 107.426 39.146V38.9715H106.492V38.2683H108.251V38.9458C108.264 39.3308 108.175 39.7127 107.993 40.0545C107.836 40.3422 107.598 40.5793 107.306 40.7372C107.003 40.8915 106.665 40.9691 106.324 40.963Z" fill="white"/>
<path d="M111.496 40.8757V35.6351H113.717C114.081 35.6121 114.445 35.6886 114.767 35.8558C114.999 35.9869 115.183 36.1863 115.292 36.4256C115.397 36.6603 115.451 36.9138 115.45 37.1698C115.45 37.3775 115.409 37.5832 115.329 37.7755C115.243 37.973 115.112 38.1485 114.946 38.2888C114.75 38.453 114.515 38.5676 114.263 38.6224L115.382 40.8552H114.51L113.46 38.6943H112.305V40.8552L111.496 40.8757ZM112.273 38.0065H113.733C113.916 38.0126 114.097 37.97 114.258 37.8833C114.384 37.8116 114.485 37.7042 114.547 37.5753C114.603 37.4509 114.632 37.3162 114.631 37.1801C114.629 37.0498 114.603 36.9209 114.552 36.8003C114.493 36.6669 114.397 36.5528 114.274 36.4718C114.104 36.3746 113.908 36.3282 113.712 36.3383H112.252L112.273 38.0065Z" fill="white"/>
<path d="M120.717 40.963C120.352 40.9704 119.991 40.8893 119.667 40.7269C119.38 40.5753 119.136 40.3566 118.958 40.0904C118.779 39.8231 118.647 39.528 118.569 39.2178C118.408 38.5842 118.408 37.9216 118.569 37.2879C118.647 36.9777 118.779 36.6827 118.958 36.4153C119.136 36.1491 119.38 35.9304 119.667 35.7789C120.003 35.6235 120.371 35.5429 120.743 35.5429C121.115 35.5429 121.483 35.6235 121.82 35.7789C122.106 35.9304 122.35 36.1491 122.528 36.4153C122.709 36.6816 122.841 36.977 122.917 37.2879C123.078 37.9216 123.078 38.5842 122.917 39.2178C122.841 39.5288 122.709 39.8242 122.528 40.0904C122.35 40.3566 122.106 40.5753 121.82 40.7269C121.479 40.8984 121.099 40.9799 120.717 40.963ZM120.717 40.2444C120.963 40.2527 121.207 40.1883 121.415 40.0596C121.607 39.9403 121.766 39.7763 121.877 39.5823C122 39.383 122.085 39.164 122.129 38.9355C122.181 38.7115 122.207 38.4826 122.208 38.2529C122.208 38.0113 122.182 37.7704 122.129 37.5343C122.084 37.3084 122.001 37.0915 121.883 36.8927C121.769 36.7043 121.611 36.5457 121.42 36.4307C121.208 36.3077 120.964 36.2472 120.717 36.2562C120.47 36.2493 120.225 36.3116 120.013 36.4359C119.824 36.5587 119.667 36.7241 119.556 36.9183C119.44 37.1205 119.355 37.3385 119.304 37.5651C119.253 37.7909 119.226 38.0215 119.225 38.2529C119.227 38.4859 119.253 38.7181 119.304 38.9458C119.352 39.1715 119.437 39.3882 119.556 39.5874C119.666 39.7768 119.823 39.9357 120.013 40.0494C120.224 40.179 120.468 40.2467 120.717 40.2444Z" fill="white"/>
<path d="M128.278 40.963C127.914 40.9719 127.552 40.8907 127.228 40.7269C126.942 40.5753 126.698 40.3566 126.519 40.0904C126.339 39.8233 126.205 39.5283 126.125 39.2178C125.964 38.5842 125.964 37.9216 126.125 37.2879C126.205 36.9774 126.339 36.6824 126.519 36.4153C126.698 36.1491 126.942 35.9304 127.228 35.7789C127.564 35.6235 127.931 35.543 128.302 35.543C128.673 35.543 129.04 35.6235 129.376 35.7789C129.662 35.9304 129.906 36.1491 130.085 36.4153C130.266 36.6816 130.397 36.977 130.473 37.2879C130.634 37.9216 130.634 38.5842 130.473 39.2178C130.397 39.5288 130.266 39.8242 130.085 40.0904C129.906 40.3566 129.662 40.5753 129.376 40.7269C129.037 40.8976 128.659 40.979 128.278 40.963ZM128.278 40.2444C128.526 40.2522 128.771 40.1879 128.982 40.0596C129.171 39.9387 129.328 39.775 129.439 39.5823C129.562 39.3857 129.65 39.1706 129.701 38.9458C129.749 38.7211 129.773 38.4925 129.775 38.2631C129.774 38.0219 129.749 37.7812 129.701 37.5445C129.652 37.3191 129.567 37.1025 129.449 36.9029C129.338 36.7134 129.179 36.5545 128.987 36.441C128.775 36.318 128.53 36.2574 128.284 36.2665C128.038 36.2591 127.795 36.3215 127.585 36.4461C127.393 36.5674 127.234 36.7331 127.123 36.9286C127.007 37.1308 126.922 37.3487 126.871 37.5753C126.819 37.8012 126.793 38.0318 126.792 38.2631C126.793 38.4926 126.817 38.7213 126.866 38.9458C126.914 39.1715 126.999 39.3882 127.118 39.5874C127.228 39.7781 127.387 39.9373 127.58 40.0494C127.788 40.1797 128.031 40.2475 128.278 40.2444Z" fill="white"/>
<path d="M136.108 40.963L134.679 37.7858L134.58 37.5497C134.548 37.4624 134.517 37.3854 134.49 37.3084C134.49 37.37 134.49 37.447 134.49 37.5394V40.8757H133.718V35.6351H134.469L136.003 38.9766C136.029 39.0318 136.051 39.0883 136.071 39.146C136.097 39.2029 136.12 39.2612 136.139 39.3205L136.202 39.146L136.276 38.9766L137.772 35.6351H138.507V40.8757H137.73V37.7961C137.73 37.7191 137.73 37.6369 137.73 37.5394C137.73 37.4419 137.73 37.37 137.73 37.3187L137.636 37.5599L137.536 37.8012L136.108 40.963Z" fill="white"/>
<path d="M141.868 40.8757V35.6351H142.64V40.8757H141.868Z" fill="white"/>
<path d="M146.027 40.8757V35.6351H146.783L149.067 39.146L149.183 39.3308L149.293 39.5361C149.293 39.4745 149.293 39.4078 149.293 39.341C149.293 39.2743 149.293 39.2076 149.293 39.1511V35.6351H150.065V40.8757H149.34L147.014 37.3444L146.909 37.1647L146.794 36.9697C146.799 37.0311 146.799 37.093 146.794 37.1545C146.794 37.2263 146.794 37.2879 146.794 37.3444V40.8757H146.027Z" fill="white"/>
<path d="M155.537 40.963C155.173 40.9727 154.812 40.8952 154.486 40.7372C154.2 40.5922 153.955 40.3807 153.772 40.1212C153.586 39.8557 153.449 39.5603 153.368 39.2486C153.282 38.9234 153.238 38.5889 153.237 38.2529C153.237 37.9199 153.283 37.5885 153.373 37.2674C153.462 36.9556 153.604 36.6607 153.793 36.3948C153.979 36.1369 154.224 35.9243 154.507 35.7737C154.823 35.6132 155.175 35.5337 155.531 35.5428C155.82 35.5345 156.107 35.5815 156.377 35.6813C156.588 35.766 156.779 35.8917 156.939 36.0509C157.083 36.1949 157.211 36.3532 157.322 36.5231L156.629 36.9081C156.509 36.7372 156.364 36.5849 156.198 36.4564C156.005 36.3192 155.77 36.2504 155.531 36.2613C155.296 36.2543 155.063 36.3122 154.86 36.4284C154.656 36.5446 154.491 36.7144 154.381 36.9183C154.263 37.119 154.179 37.3376 154.135 37.5651C154.083 37.7908 154.056 38.0215 154.056 38.2529C154.057 38.5015 154.085 38.7493 154.14 38.992C154.193 39.2169 154.284 39.4319 154.408 39.6285C154.521 39.8124 154.68 39.9659 154.87 40.075C155.075 40.1905 155.31 40.2474 155.547 40.2393C155.75 40.2433 155.951 40.1956 156.13 40.1007C156.295 40.0079 156.431 39.8731 156.524 39.7106C156.62 39.5376 156.669 39.343 156.666 39.146V38.9715H155.715V38.2683H157.474V38.9458C157.487 39.3308 157.399 39.7127 157.217 40.0545C157.06 40.3422 156.821 40.5793 156.529 40.7372C156.223 40.8932 155.882 40.9709 155.537 40.963Z" fill="white"/>
<path d="M0.714111 40.8757V35.6351H2.81454C3.17969 35.6161 3.54313 35.696 3.86475 35.8661C4.0963 36.0116 4.27892 36.2204 4.38986 36.4667C4.49792 36.7059 4.55338 36.9647 4.55264 37.2263C4.55163 37.4165 4.51973 37.6054 4.45812 37.7858C4.39091 37.9754 4.28557 38.1499 4.14831 38.2991C4.00383 38.4604 3.82447 38.5884 3.6232 38.6738C3.36501 38.7763 3.08785 38.8252 2.80929 38.8175H1.48602V40.8706L0.714111 40.8757ZM1.48602 38.1092H2.87755C3.0621 38.1152 3.24449 38.0688 3.40266 37.9757C3.53286 37.896 3.63537 37.7797 3.69672 37.6421C3.75439 37.5106 3.78474 37.3693 3.78598 37.2263C3.78383 37.0911 3.75716 36.9572 3.70722 36.8311C3.65081 36.6895 3.55198 36.5678 3.42366 36.4821C3.25223 36.3784 3.05259 36.3283 2.85129 36.3383H1.48602V38.1092Z" fill="white"/>
<path d="M7.55103 40.8757V35.6351H9.77223C10.1364 35.6127 10.4999 35.6891 10.8224 35.8559C11.0546 35.9869 11.2384 36.1863 11.3475 36.4256C11.4524 36.6603 11.506 36.9138 11.5051 37.1698C11.5026 37.3772 11.4617 37.5824 11.3843 37.7755C11.2964 37.9719 11.1656 38.1471 11.001 38.2888C10.8048 38.453 10.5704 38.5676 10.3183 38.6224L11.4368 40.8552H10.5546L9.50442 38.6943H8.32293V40.8552L7.55103 40.8757ZM8.32293 38.0065H9.78798C9.97101 38.0109 10.152 37.9684 10.3131 37.8833C10.4378 37.8102 10.5382 37.7032 10.6019 37.5753C10.6564 37.4503 10.6849 37.316 10.6859 37.1801C10.6846 37.0498 10.6578 36.9209 10.6071 36.8003C10.5467 36.6665 10.4483 36.5525 10.3236 36.4718C10.1559 36.3739 9.96199 36.3274 9.76698 36.3383H8.32293V38.0065Z" fill="white"/>
<path d="M14.703 40.8757V35.6351H18.0322V36.3486H15.4697V37.8063H17.0975V38.5249H15.4697V40.152H18.195V40.8757H14.703Z" fill="white"/>
<path d="M23.6666 40.963L22.2383 37.7858L22.1385 37.5497C22.1018 37.4624 22.0755 37.3854 22.0492 37.3084C22.0492 37.37 22.0492 37.447 22.0492 37.5394C22.0492 37.6318 22.0492 37.7139 22.0492 37.7858V40.8655H21.2878V35.6351H22.0545L23.551 38.9766C23.551 39.0331 23.5983 39.0844 23.6193 39.146C23.6403 39.2076 23.6666 39.2589 23.6876 39.3205L23.7506 39.146C23.7506 39.0895 23.7979 39.0331 23.8241 38.9766L25.3207 35.6351H26.0558V40.8757H25.2629V37.7961C25.2629 37.7191 25.2629 37.6369 25.2629 37.5394C25.2629 37.4419 25.2629 37.37 25.2629 37.3187L25.1684 37.5599C25.1316 37.6472 25.0949 37.7293 25.0686 37.8012L23.6666 40.963Z" fill="white"/>
<path d="M29.406 40.8757V35.6351H30.1832V40.8757H29.406Z" fill="white"/>
<path d="M35.5655 40.963C35.1829 40.9755 34.8034 40.8924 34.4628 40.7218C34.1677 40.5651 33.9334 40.318 33.7959 40.0186C33.6393 39.6641 33.564 39.2804 33.5753 38.8945V35.6351H34.3472V38.8945C34.3279 39.2532 34.4375 39.6073 34.6571 39.8954C34.7741 40.0194 34.9189 40.1155 35.0801 40.176C35.2413 40.2365 35.4146 40.2599 35.5865 40.2444C35.8228 40.2531 36.0575 40.2037 36.2691 40.1007C36.4512 40.0002 36.5936 39.843 36.6735 39.6541C36.7721 39.4128 36.8186 39.1542 36.81 38.8945V35.6351H37.5819V38.8945C37.587 39.2042 37.5409 39.5127 37.4454 39.8081C37.3652 40.0498 37.2306 40.2708 37.0515 40.4548C36.8733 40.6273 36.6581 40.7587 36.4214 40.8398C36.1452 40.9276 35.8559 40.9693 35.5655 40.963Z" fill="white"/>
<path d="M43.3109 40.963L41.8826 37.7858C41.8511 37.7139 41.8195 37.6369 41.788 37.5497C41.7565 37.4624 41.7198 37.3854 41.6935 37.3084C41.6935 37.37 41.6935 37.447 41.6935 37.5394V40.8757H40.9584V35.6351H41.7093L43.2006 38.9766L43.2741 39.146C43.2741 39.2024 43.3161 39.2589 43.3424 39.3205L43.4054 39.146C43.4054 39.0895 43.4474 39.0331 43.4736 38.9766L44.9702 35.6351H45.6843V40.8757H44.9072V37.7961C44.9072 37.7191 44.9072 37.6369 44.9072 37.5394C44.9072 37.4419 44.9072 37.37 44.9072 37.3187C44.9072 37.3854 44.8547 37.4676 44.8179 37.5599L44.7129 37.8012L43.3109 40.963Z" fill="white"/>
</g>
<defs>
<clipPath id="clip0_26_51">
<rect width="160" height="40" fill="white" transform="translate(0 0.962997)"/>
</clipPath>
</defs>
</svg>
