<svg width="200" height="52" viewBox="0 0 200 52" fill="none" xmlns="http://www.w3.org/2000/svg">
<g id="Layer 1">
<path id="Vector" d="M14.342 4.43196V1.16699H0V37.4055H3.49852V24.3262H12.5304V21.0548H3.49852V4.43196H14.342Z" fill="#262626"/>
<path id="Vector_2" d="M33.0817 14.8809V27.8371C33.0877 28.7383 32.9008 29.6306 32.5331 30.4556C32.1655 31.2806 31.6255 32.0196 30.9485 32.6244C30.3085 33.2797 29.5406 33.8002 28.6911 34.1543C27.8415 34.5083 26.9281 34.6887 26.0059 34.6844C25.1163 34.698 24.2341 34.5242 23.418 34.1746C22.6019 33.8249 21.8707 33.3075 21.2734 32.6568C20.6367 32.0232 20.1346 31.2705 19.7964 30.4429C19.4583 29.6153 19.291 28.7293 19.3042 27.8371V14.8809H15.8451V27.8371C15.8225 29.1575 16.0695 30.4689 16.5714 31.6932C17.0732 32.9174 17.8195 34.0294 18.766 34.963C19.7001 35.917 20.8232 36.6711 22.0654 37.1782C23.3075 37.6853 24.6422 37.9346 25.9862 37.9105C28.9399 37.9105 31.3095 37.036 33.062 35.3193V37.4182H36.5146V14.8809H33.0817Z" fill="#262626"/>
<path id="Vector_3" d="M53.4165 16.0342C52.0584 14.985 50.3889 14.4046 48.6643 14.3823C47.1096 14.3659 45.5784 14.7571 44.2271 15.516C43.837 15.7415 43.464 15.9948 43.1113 16.2739V14.8811H39.6587V37.4055H43.1113V22.7132C43.1105 22.0445 43.2508 21.383 43.5231 20.7707C43.7955 20.1584 44.1939 19.6088 44.6931 19.1567C45.161 18.6662 45.7254 18.2753 46.3519 18.008C46.9783 17.7406 47.6536 17.6024 48.3361 17.6019C49.0578 17.621 49.7678 17.7867 50.4217 18.0888C51.0756 18.3909 51.6594 18.8228 52.1365 19.3575L53.8234 20.99V16.3258L53.4165 16.0342Z" fill="#262626"/>
<path id="Vector_4" d="M69.5766 16.0339C68.2167 14.9833 66.5447 14.4029 64.8178 14.382C62.8012 14.3495 60.8374 15.0192 59.2714 16.2736V14.8808H55.7926V37.4052H59.2451V22.7128C59.2444 22.0442 59.3847 21.3826 59.657 20.7704C59.9294 20.1581 60.3278 19.6084 60.827 19.1564C61.2944 18.6653 61.8588 18.274 62.4853 18.0066C63.1119 17.7392 63.7873 17.6013 64.47 17.6016C65.1906 17.6215 65.8993 17.7877 66.552 18.0897C67.2047 18.3918 67.7874 18.8232 68.2639 19.3572L69.9442 21.0156V16.3513L69.5766 16.0339Z" fill="#262626"/>
<path id="Vector_5" d="M88.684 14.8809V27.8371C88.6939 28.7324 88.5178 29.6202 88.1668 30.4458C87.8157 31.2713 87.297 32.0172 86.6426 32.6373C86.019 33.2846 85.2687 33.7999 84.437 34.152C83.6054 34.5041 82.71 34.6857 81.8051 34.6857C80.9001 34.6857 80.0047 34.5041 79.1731 34.152C78.3415 33.7999 77.5911 33.2846 76.9675 32.6373C76.3095 32.0193 75.7875 31.2741 75.4341 30.4482C75.0806 29.6224 74.9033 28.7335 74.913 27.8371V14.8809H71.4605V27.8371C71.4443 29.1659 71.7045 30.4839 72.2249 31.7096C72.7454 32.9353 73.5151 34.0426 74.4864 34.963C75.4325 35.9166 76.5649 36.6706 77.815 37.1795C79.0652 37.6884 80.407 37.9415 81.7591 37.9235C84.6603 37.9235 87.0102 37.0943 88.6971 35.4618V35.9412C88.6783 37.8855 87.8873 39.7449 86.4942 41.1198C85.1012 42.4946 83.2171 43.2752 81.2471 43.2938C79.8489 43.2939 78.4808 42.8933 77.3088 42.1407C76.0371 41.3474 74.9804 40.2601 74.2304 38.9729L72.5369 36.0967L72.3138 42.0306L72.5238 42.3092C73.5239 43.6501 74.8393 44.731 76.3566 45.4589C77.8739 46.1867 79.5478 46.5398 81.234 46.4875C82.6655 46.5004 84.0853 46.2324 85.411 45.6991C86.7366 45.1657 87.9417 44.3777 88.9561 43.3808C89.9705 42.3838 90.774 41.1979 91.32 39.8918C91.866 38.5857 92.1435 37.1856 92.1365 35.7727V14.8809H88.684Z" fill="#262626"/>
<path id="Vector_6" d="M127.476 6.07076C123.907 2.55002 119.067 0.572266 114.02 0.572266C108.974 0.572266 104.134 2.55002 100.564 6.07076C98.7737 7.75745 97.3514 9.78787 96.3852 12.0371C95.4189 14.2864 94.9291 16.707 94.9458 19.1501C94.9318 21.6004 95.414 24.0289 96.3643 26.2927C97.3145 28.5566 98.7135 30.6102 100.479 32.333C102.151 34.1216 104.181 35.5475 106.441 36.52C108.701 37.4925 111.141 37.9904 113.607 37.9819H114.303C116.782 38.0062 119.239 37.5205 121.517 36.5557C123.795 35.5909 125.845 34.1682 127.535 32.3783C129.298 30.6489 130.693 28.59 131.64 26.322C132.587 24.0539 133.066 21.6224 133.049 19.1695C133.071 16.7269 132.588 14.3055 131.63 12.0533C130.672 9.80113 129.259 7.76546 127.476 6.07076ZM114.014 3.84229C116.062 3.80453 118.095 4.18825 119.985 4.96899C121.875 5.74973 123.579 6.91037 124.989 8.37696C126.47 9.78264 127.643 11.4743 128.433 13.3467C129.224 15.2191 129.615 17.232 129.583 19.2602C129.615 21.2921 129.223 23.3087 128.433 25.1852C127.642 27.0617 126.47 28.758 124.989 30.1693C123.559 31.6127 121.851 32.7596 119.966 33.5426C118.081 34.3257 116.056 34.729 114.011 34.729C111.965 34.729 109.94 34.3257 108.055 33.5426C106.17 32.7596 104.462 31.6127 103.032 30.1693C101.551 28.7583 100.378 27.0619 99.5879 25.1854C98.7976 23.3089 98.4061 21.2921 98.4378 19.2602C98.405 17.2319 98.7961 15.2187 99.5866 13.3463C100.377 11.4738 101.55 9.78216 103.032 8.37696C104.447 6.91399 106.152 5.75583 108.042 4.97539C109.932 4.19496 111.965 3.80916 114.014 3.84229Z" fill="#8C2B45"/>
<path id="Vector_7" d="M155.261 14.8805V17.8151C154.58 17.1312 153.807 16.5427 152.964 16.066C151.097 14.9691 148.966 14.3874 146.794 14.3817C145.218 14.363 143.654 14.6599 142.197 15.2545C140.741 15.849 139.422 16.729 138.32 17.841C137.2 18.9226 136.31 20.2141 135.702 21.6397C135.095 23.0652 134.782 24.5962 134.782 26.1427C134.782 27.6892 135.095 29.2201 135.702 30.6457C136.31 32.0713 137.2 33.3627 138.32 34.4444C139.42 35.5591 140.739 36.4412 142.196 37.0371C143.652 37.6329 145.217 37.9299 146.794 37.9102C148.927 37.9115 151.02 37.3429 152.852 36.2647C153.739 35.7536 154.549 35.1235 155.261 34.3926V37.4049H158.713V14.8805H155.261ZM155.353 26.1654C155.37 27.2799 155.158 28.3863 154.73 29.4175C154.301 30.4487 153.664 31.3831 152.859 32.1641C152.095 32.9754 151.166 33.6191 150.134 34.0532C149.101 34.4874 147.988 34.7023 146.866 34.6841C145.732 34.6976 144.608 34.4802 143.563 34.0455C142.518 33.6108 141.576 32.9681 140.794 32.1576C139.975 31.3901 139.325 30.4642 138.884 29.4377C138.444 28.4111 138.223 27.306 138.234 26.1913C138.224 25.0684 138.446 23.9553 138.887 22.9204C139.329 21.8854 139.98 20.9505 140.801 20.1731C141.569 19.3496 142.503 18.6936 143.543 18.2473C144.582 17.8011 145.706 17.5744 146.84 17.5819C147.963 17.5682 149.078 17.7877 150.11 18.2263C151.142 18.6649 152.07 19.3127 152.832 20.1278C153.646 20.912 154.29 21.8519 154.723 22.8901C155.157 23.9282 155.371 25.0427 155.353 26.1654Z" fill="#8C2B45"/>
<path id="Vector_8" d="M174.598 26.6255C173.845 25.5906 172.896 24.7105 171.802 24.0342C170.797 23.3864 169.793 22.8293 168.815 22.2916C167.982 21.8452 167.206 21.3015 166.505 20.6721C166.29 20.5043 166.114 20.2933 165.989 20.0531C165.863 19.813 165.791 19.5492 165.776 19.2793C165.773 19.052 165.824 18.8272 165.924 18.6225C166.024 18.4179 166.171 18.2391 166.354 18.1003C166.766 17.7398 167.3 17.5435 167.85 17.5497C168.453 17.5639 169.041 17.7341 169.556 18.0434C170.071 18.3526 170.495 18.79 170.784 19.3117L172.589 21.9807V16.5326L172.327 16.254C171.798 15.6413 171.139 15.15 170.398 14.8144C169.657 14.4787 168.85 14.3068 168.034 14.3106C166.562 14.2575 165.121 14.7392 163.984 15.6645C163.46 16.084 163.039 16.6146 162.752 17.2168C162.464 17.8191 162.318 18.4775 162.324 19.1433C162.308 20.4139 162.763 21.6463 163.604 22.6091C164.384 23.5129 165.314 24.2795 166.354 24.8764L169.294 26.5866C170.154 27.0867 170.922 27.7262 171.565 28.4782C172.124 29.1601 172.413 30.0185 172.379 30.8946C172.362 31.3887 172.236 31.8731 172.009 32.314C171.782 32.7548 171.461 33.1415 171.067 33.4469C170.136 34.2676 168.92 34.7016 167.673 34.6583C165.481 34.6583 163.925 33.5894 162.914 31.4193L161.031 27.3186V34.2567L161.155 34.4769C161.792 35.5762 162.754 36.4576 163.912 37.0034C165.12 37.6068 166.457 37.9176 167.811 37.9103C169.909 37.9479 171.939 37.1709 173.462 35.7467C174.22 35.0812 174.823 34.2633 175.233 33.3481C175.643 32.4329 175.85 31.4416 175.839 30.4411C175.854 29.0702 175.419 27.7314 174.598 26.6255Z" fill="#8C2B45"/>
<path id="Vector_9" d="M180.571 11.8431C180.876 11.8736 181.185 11.8384 181.475 11.7399C181.765 11.6413 182.03 11.4819 182.251 11.2725C182.473 11.0631 182.645 10.8087 182.758 10.527C182.87 10.2452 182.919 9.94279 182.901 9.64055C182.901 9.03062 182.656 8.44568 182.219 8.01439C181.782 7.58311 181.189 7.34082 180.571 7.34082C179.953 7.34082 179.36 7.58311 178.923 8.01439C178.486 8.44568 178.241 9.03062 178.241 9.64055C178.223 9.94279 178.272 10.2452 178.384 10.527C178.497 10.8087 178.669 11.0631 178.891 11.2725C179.113 11.4819 179.378 11.6413 179.668 11.7399C179.958 11.8384 180.266 11.8736 180.571 11.8431Z" fill="#8C2B45"/>
<path id="Vector_10" d="M182.297 14.9326H178.845V37.4052H182.297V14.9326Z" fill="#8C2B45"/>
<path id="Vector_11" d="M198.766 26.6255C198.011 25.5903 197.059 24.7102 195.963 24.0342C194.966 23.3864 193.961 22.8293 192.983 22.2916C192.15 21.8452 191.374 21.3015 190.673 20.6721C190.458 20.5043 190.282 20.2933 190.157 20.0531C190.031 19.813 189.959 19.5492 189.944 19.2793C189.941 19.052 189.992 18.8272 190.092 18.6225C190.192 18.4179 190.339 18.2391 190.522 18.1003C190.934 17.7398 191.468 17.5435 192.018 17.5497C192.62 17.5663 193.207 17.7383 193.721 18.0486C194.235 18.3589 194.657 18.7966 194.946 19.3182L196.744 21.9872V16.5326L196.488 16.254C195.959 15.642 195.3 15.1512 194.559 14.8156C193.818 14.48 193.011 14.3076 192.196 14.3106C190.723 14.2575 189.282 14.7392 188.146 15.6645C187.622 16.084 187.201 16.6146 186.913 17.2168C186.626 17.8191 186.479 18.4775 186.485 19.1433C186.465 20.4135 186.918 21.6469 187.758 22.6091C188.543 23.5115 189.474 24.2779 190.515 24.8764L193.449 26.5866C194.311 27.0865 195.081 27.726 195.727 28.4782C196.285 29.1601 196.574 30.0185 196.541 30.8946C196.524 31.3887 196.397 31.8731 196.17 32.314C195.944 32.7548 195.622 33.1415 195.228 33.4469C194.296 34.2686 193.077 34.7026 191.828 34.6583C189.642 34.6583 188.087 33.5894 187.076 31.4193L185.192 27.3186V34.2567L185.317 34.4769C185.952 35.5775 186.914 36.4593 188.074 37.0034C189.282 37.6068 190.618 37.9176 191.972 37.9103C194.071 37.9479 196.1 37.1709 197.624 35.7467C198.381 35.0812 198.985 34.2633 199.395 33.3481C199.805 32.4329 200.011 31.4416 200 30.4411C200.014 29.0715 199.582 27.7337 198.766 26.6255Z" fill="#8C2B45"/>
<path id="Vector_12" d="M100.932 50.9448V44.3306H103.558C104.014 44.3066 104.468 44.4075 104.87 44.6221C105.16 44.8057 105.388 45.0693 105.527 45.3801C105.662 45.6821 105.731 46.0087 105.73 46.3388C105.729 46.5789 105.689 46.8172 105.612 47.0449C105.531 47.2839 105.401 47.5042 105.231 47.6928C105.048 47.8937 104.825 48.0548 104.575 48.1657C104.252 48.2956 103.906 48.3574 103.558 48.347H101.871V50.9383L100.932 50.9448ZM101.897 47.4531H103.643C103.874 47.4614 104.102 47.4029 104.299 47.2846C104.462 47.1841 104.59 47.0373 104.667 46.8636C104.739 46.6977 104.777 46.5193 104.778 46.3388C104.776 46.1681 104.742 45.9992 104.68 45.84C104.61 45.6613 104.486 45.5078 104.326 45.3995C104.114 45.2685 103.866 45.2051 103.617 45.2181H101.871L101.897 47.4531Z" fill="#262626"/>
<path id="Vector_13" d="M109.478 50.9442V44.3301H113.646V45.2305H110.45V47.0703H112.484V47.9772H110.45V50.0308H113.85V50.9442H109.478Z" fill="#262626"/>
<path id="Vector_14" d="M119.225 50.9442V45.2694H117.348V44.3301H122.087V45.2694H120.203V50.9701L119.225 50.9442Z" fill="#262626"/>
<path id="Vector_15" d="M132.904 51.0549C132.45 51.0672 131.999 50.9694 131.592 50.7699C131.234 50.587 130.927 50.32 130.699 49.9925C130.467 49.6574 130.296 49.2846 130.194 48.8913C130.086 48.4808 130.031 48.0586 130.03 47.6345C130.03 47.2138 130.09 46.7952 130.207 46.3907C130.316 45.9976 130.491 45.6253 130.725 45.2894C130.959 44.9648 131.264 44.6968 131.618 44.5056C132.013 44.3029 132.453 44.2026 132.898 44.2141C133.258 44.2036 133.617 44.263 133.955 44.389C134.218 44.4958 134.457 44.6545 134.657 44.8554C134.839 45.0355 135 45.2354 135.136 45.4514L134.27 45.9372C134.122 45.7202 133.94 45.5278 133.732 45.3672C133.49 45.194 133.196 45.1071 132.898 45.121C132.587 45.1124 132.28 45.1911 132.012 45.3477C131.774 45.4985 131.577 45.7056 131.441 45.9502C131.293 46.2034 131.188 46.4793 131.132 46.7664C131.001 47.3598 131.001 47.974 131.132 48.5674C131.194 48.8518 131.305 49.1236 131.46 49.3706C131.603 49.6028 131.801 49.7965 132.038 49.9342C132.295 50.08 132.588 50.1518 132.885 50.1415C133.139 50.1476 133.39 50.0872 133.613 49.9666C133.82 49.8496 133.99 49.6794 134.106 49.4743C134.226 49.256 134.288 49.0104 134.283 48.7617V48.5414H133.115V47.6539H135.313V48.5091C135.33 48.995 135.219 49.4769 134.992 49.9083C134.795 50.2714 134.497 50.5707 134.132 50.7699C133.753 50.9647 133.331 51.0627 132.904 51.0549Z" fill="#262626"/>
<path id="Vector_16" d="M139.37 50.9444V44.3302H142.146C142.602 44.3012 143.056 44.3977 143.459 44.6088C143.749 44.7742 143.979 45.0259 144.116 45.3279C144.247 45.6241 144.314 45.944 144.312 46.2672C144.313 46.5292 144.261 46.7888 144.161 47.0316C144.054 47.2808 143.89 47.5024 143.682 47.6794C143.437 47.8867 143.144 48.0313 142.829 48.1005L144.227 50.9185H143.138L141.825 48.1912H140.381V50.9185L139.37 50.9444ZM140.341 47.3231H142.166C142.395 47.3308 142.622 47.2771 142.822 47.1677C142.98 47.0772 143.106 46.9416 143.183 46.779C143.254 46.6219 143.29 46.4519 143.288 46.2802C143.287 46.1156 143.253 45.9529 143.19 45.8008C143.117 45.6324 142.996 45.4885 142.842 45.3862C142.63 45.2636 142.386 45.205 142.14 45.2177H140.315L140.341 47.3231Z" fill="#262626"/>
<path id="Vector_17" d="M150.896 51.0546C150.44 51.0639 149.989 50.9616 149.583 50.7566C149.225 50.5653 148.921 50.2893 148.697 49.9533C148.473 49.6159 148.309 49.2435 148.211 48.852C148.01 48.0523 148.01 47.2161 148.211 46.4163C148.309 46.0248 148.473 45.6524 148.697 45.315C148.921 44.979 149.225 44.703 149.583 44.5117C150.004 44.3156 150.463 44.2139 150.929 44.2139C151.394 44.2139 151.854 44.3156 152.274 44.5117C152.633 44.703 152.937 44.979 153.16 45.315C153.387 45.651 153.551 46.0238 153.646 46.4163C153.847 47.2161 153.847 48.0523 153.646 48.852C153.551 49.2445 153.387 49.6173 153.16 49.9533C152.937 50.2893 152.633 50.5653 152.274 50.7566C151.849 50.9731 151.374 51.0759 150.896 51.0546ZM150.896 50.1477C151.204 50.1582 151.508 50.0769 151.769 49.9145C152.009 49.7639 152.207 49.5569 152.347 49.312C152.5 49.0604 152.606 48.7841 152.662 48.4958C152.726 48.2129 152.759 47.924 152.76 47.6342C152.76 47.3293 152.727 47.0252 152.662 46.7272C152.605 46.4422 152.501 46.1684 152.353 45.9175C152.211 45.6797 152.013 45.4796 151.776 45.3344C151.51 45.1792 151.204 45.1028 150.896 45.1142C150.587 45.1054 150.282 45.1841 150.016 45.3409C149.779 45.4959 149.584 45.7048 149.445 45.9499C149.3 46.205 149.194 46.4801 149.13 46.7661C149.066 47.0511 149.033 47.3422 149.032 47.6342C149.034 47.9283 149.067 48.2214 149.13 48.5087C149.19 48.7936 149.297 49.0671 149.445 49.3185C149.583 49.5575 149.779 49.7581 150.016 49.9015C150.28 50.0651 150.585 50.1506 150.896 50.1477Z" fill="#262626"/>
<path id="Vector_18" d="M160.348 51.0544C159.892 51.0657 159.44 50.9632 159.035 50.7565C158.677 50.5652 158.372 50.2892 158.149 49.9532C157.923 49.6161 157.757 49.2437 157.657 48.8519C157.455 48.0521 157.455 47.2159 157.657 46.4161C157.757 46.0243 157.923 45.652 158.149 45.3148C158.372 44.9789 158.677 44.7029 159.035 44.5116C159.455 44.3155 159.913 44.2139 160.377 44.2139C160.842 44.2139 161.3 44.3155 161.72 44.5116C162.078 44.7029 162.382 44.9789 162.606 45.3148C162.832 45.6509 162.997 46.0237 163.092 46.4161C163.293 47.2159 163.293 48.0521 163.092 48.8519C162.997 49.2443 162.832 49.6172 162.606 49.9532C162.382 50.2892 162.078 50.5652 161.72 50.7565C161.296 50.9719 160.824 51.0746 160.348 51.0544ZM160.348 50.1475C160.658 50.1573 160.964 50.0762 161.227 49.9143C161.464 49.7617 161.66 49.555 161.798 49.3118C161.952 49.0637 162.063 48.7923 162.127 48.5086C162.186 48.225 162.217 47.9364 162.219 47.647C162.218 47.3424 162.187 47.0387 162.127 46.74C162.065 46.4554 161.959 46.1822 161.812 45.9303C161.672 45.691 161.473 45.4905 161.234 45.3472C160.968 45.192 160.663 45.1155 160.354 45.127C160.047 45.1176 159.744 45.1964 159.481 45.3537C159.241 45.5067 159.043 45.7159 158.904 45.9627C158.758 46.2178 158.652 46.4929 158.589 46.7789C158.524 47.0639 158.491 47.355 158.49 47.647C158.491 47.9365 158.522 48.2252 158.582 48.5086C158.642 48.7935 158.749 49.0669 158.897 49.3183C159.035 49.559 159.234 49.76 159.475 49.9013C159.735 50.0658 160.039 50.1514 160.348 50.1475Z" fill="#262626"/>
<path id="Vector_19" d="M170.135 51.0543L168.349 47.0444L168.224 46.7464C168.185 46.6363 168.146 46.5391 168.113 46.4419C168.113 46.5197 168.113 46.6168 168.113 46.7335V50.9442H167.148V44.3301H168.087L170.003 48.5473C170.036 48.617 170.064 48.6884 170.089 48.7611C170.121 48.833 170.149 48.9065 170.174 48.9814L170.253 48.7611L170.345 48.5473L172.215 44.3301H173.134V50.9442H172.163V47.0574C172.163 46.9602 172.163 46.8565 172.163 46.7335C172.163 46.6104 172.163 46.5197 172.163 46.4549L172.045 46.7594L171.92 47.0638L170.135 51.0543Z" fill="#262626"/>
<path id="Vector_20" d="M177.335 50.9442V44.3301H178.3V50.9442H177.335Z" fill="#262626"/>
<path id="Vector_21" d="M182.534 50.9442V44.3301H183.479L186.334 48.7611L186.479 48.9943L186.616 49.2534C186.616 49.1757 186.616 49.0915 186.616 49.0073C186.616 48.923 186.616 48.8388 186.616 48.7676V44.3301H187.581V50.9442H186.675L183.768 46.4873L183.636 46.2606L183.492 46.0144C183.499 46.092 183.499 46.17 183.492 46.2476C183.492 46.3383 183.492 46.416 183.492 46.4873V50.9442H182.534Z" fill="#262626"/>
<path id="Vector_22" d="M194.421 51.0549C193.966 51.0672 193.515 50.9694 193.108 50.7699C192.75 50.587 192.444 50.32 192.215 49.9925C191.983 49.6574 191.812 49.2846 191.71 48.8913C191.602 48.4808 191.547 48.0586 191.546 47.6345C191.547 47.2143 191.604 46.796 191.716 46.3907C191.828 45.9973 192.005 45.625 192.242 45.2894C192.474 44.9639 192.78 44.6957 193.134 44.5056C193.529 44.3029 193.969 44.2026 194.414 44.2141C194.775 44.2036 195.134 44.263 195.471 44.389C195.735 44.4958 195.974 44.6545 196.173 44.8554C196.353 45.0372 196.514 45.2369 196.652 45.4514L195.786 45.9372C195.637 45.7215 195.455 45.5293 195.248 45.3672C195.006 45.194 194.712 45.1071 194.414 45.121C194.12 45.1121 193.829 45.1852 193.575 45.3319C193.321 45.4785 193.113 45.6928 192.977 45.9502C192.828 46.2034 192.724 46.4793 192.668 46.7664C192.603 47.0514 192.57 47.3425 192.57 47.6345C192.571 47.9483 192.606 48.261 192.675 48.5674C192.741 48.8513 192.855 49.1226 193.009 49.3706C193.152 49.6028 193.35 49.7965 193.587 49.9342C193.844 50.08 194.138 50.1518 194.434 50.1415C194.688 50.1467 194.939 50.0864 195.162 49.9666C195.369 49.8496 195.539 49.6794 195.655 49.4743C195.776 49.256 195.837 49.0104 195.832 48.7617V48.5414H194.644V47.6539H196.843V48.5091C196.859 48.995 196.748 49.4769 196.521 49.9083C196.325 50.2714 196.026 50.5707 195.661 50.7699C195.279 50.9668 194.852 51.0649 194.421 51.0549Z" fill="#262626"/>
<path id="Vector_23" d="M0.892685 50.9448V44.3306H3.51822C3.97466 44.3066 4.42896 44.4075 4.83098 44.6221C5.12042 44.8057 5.3487 45.0693 5.48737 45.3801C5.62245 45.6821 5.69177 46.0087 5.69085 46.3388C5.68959 46.5789 5.64971 46.8172 5.5727 47.0449C5.48869 47.2842 5.35701 47.5045 5.18543 47.6928C5.00483 47.8964 4.78064 48.058 4.52905 48.1657C4.20631 48.295 3.85986 48.3568 3.51165 48.347H1.85757V50.9383L0.892685 50.9448ZM1.85757 47.4531H3.59698C3.82767 47.4607 4.05565 47.4022 4.25337 47.2846C4.41613 47.1841 4.54426 47.0373 4.62094 46.8636C4.69304 46.6977 4.73097 46.5193 4.73253 46.3388C4.72983 46.1681 4.6965 45.9992 4.63407 45.84C4.56356 45.6613 4.44002 45.5078 4.27962 45.3995C4.06533 45.2687 3.81578 45.2055 3.56416 45.2181H1.85757V47.4531Z" fill="#262626"/>
<path id="Vector_24" d="M9.43879 50.9442V44.33H12.2153C12.6705 44.3017 13.1248 44.3981 13.5281 44.6086C13.8182 44.774 14.048 45.0256 14.1844 45.3277C14.3155 45.6239 14.3826 45.9438 14.3814 46.267C14.3783 46.5287 14.3271 46.7877 14.2304 47.0314C14.1205 47.2793 13.957 47.5004 13.7512 47.6792C13.5061 47.8865 13.213 48.0311 12.8979 48.1003L14.296 50.9183H13.1933L11.8805 48.191H10.4037V50.9183L9.43879 50.9442ZM10.4037 47.3229H12.235C12.4638 47.3284 12.69 47.2749 12.8914 47.1674C13.0473 47.0751 13.1727 46.9401 13.2524 46.7788C13.3205 46.621 13.3562 46.4514 13.3574 46.2799C13.3557 46.1154 13.3223 45.9527 13.2589 45.8006C13.1834 45.6318 13.0604 45.4879 12.9045 45.386C12.6949 45.2624 12.4525 45.2037 12.2087 45.2175H10.4037V47.3229Z" fill="#262626"/>
<path id="Vector_25" d="M18.3787 50.9442V44.3301H22.5402V45.2305H19.337V47.0703H21.3718V47.9772H19.337V50.0308H22.7437V50.9442H18.3787Z" fill="#262626"/>
<path id="Vector_26" d="M29.5832 51.0543L27.7978 47.0444L27.6731 46.7464C27.6272 46.6363 27.5944 46.5391 27.5615 46.4419C27.5615 46.5197 27.5615 46.6168 27.5615 46.7335C27.5615 46.8501 27.5615 46.9537 27.5615 47.0444V50.9313H26.6098V44.3301H27.5681L29.4388 48.5473C29.4388 48.6186 29.4979 48.6834 29.5241 48.7611C29.5504 48.8388 29.5832 48.9036 29.6095 48.9814L29.6882 48.7611C29.6882 48.6898 29.7473 48.6186 29.7801 48.5473L31.6508 44.3301H32.5697V50.9442H31.5786V47.0574C31.5786 46.9602 31.5786 46.8565 31.5786 46.7335C31.5786 46.6104 31.5786 46.5197 31.5786 46.4549L31.4605 46.7594C31.4145 46.8695 31.3686 46.9731 31.3357 47.0638L29.5832 51.0543Z" fill="#262626"/>
<path id="Vector_27" d="M36.7575 50.9442V44.3301H37.7289V50.9442H36.7575Z" fill="#262626"/>
<path id="Vector_28" d="M44.4568 51.0543C43.9786 51.0701 43.5042 50.9653 43.0784 50.7499C42.7096 50.5521 42.4167 50.2403 42.2448 49.8624C42.0491 49.415 41.955 48.9308 41.9691 48.4437V44.3301H42.934V48.4437C42.9099 48.8964 43.0469 49.3433 43.3213 49.7069C43.4676 49.8635 43.6486 49.9847 43.8501 50.0611C44.0516 50.1375 44.2682 50.167 44.4831 50.1474C44.7784 50.1584 45.0718 50.096 45.3364 49.966C45.564 49.8392 45.7419 49.6408 45.8418 49.4024C45.9651 49.0979 46.0232 48.7715 46.0125 48.4437V44.3301H46.9774V48.4437C46.9837 48.8346 46.9261 49.224 46.8067 49.5968C46.7065 49.9018 46.5383 50.1807 46.3144 50.413C46.0916 50.6306 45.8226 50.7966 45.5267 50.8989C45.1815 51.0097 44.8198 51.0622 44.4568 51.0543Z" fill="#262626"/>
<path id="Vector_29" d="M54.1385 51.0543L52.3531 47.0444C52.3138 46.9537 52.2744 46.8565 52.235 46.7464C52.1956 46.6363 52.1497 46.5391 52.1168 46.4419C52.1168 46.5197 52.1168 46.6168 52.1168 46.7335V50.9442H51.1979V44.3301H52.1365L54.0007 48.5473L54.0926 48.7611C54.0926 48.8324 54.1451 48.9036 54.1779 48.9814L54.2567 48.7611C54.2567 48.6898 54.3092 48.6186 54.342 48.5473L56.2127 44.3301H57.1054V50.9442H56.1339V47.0574C56.1339 46.9602 56.1339 46.8565 56.1339 46.7335C56.1339 46.6104 56.1339 46.5197 56.1339 46.4549C56.1339 46.5391 56.0683 46.6428 56.0223 46.7594L55.891 47.0638L54.1385 51.0543Z" fill="#262626"/>
</g>
</svg>
